<svg width="24" height="24" viewBox="0 0 24 24" fill="none" xmlns="http://www.w3.org/2000/svg">
  <rect width="24" height="24" rx="12" fill="#0A3D8F"/>
  <path d="M7.8 7.2H11.7C13.7 7.2 15 8.1 15 9.7C15 10.7 14.4 11.4 13.4 11.8V11.9C14.7 12.1 15.5 13 15.5 14.2C15.5 16.1 14.1 17.1 11.9 17.1H7.8V7.2ZM9.9 11.2H11.3C12.3 11.2 12.8 10.8 12.8 10C12.8 9.2 12.3 8.9 11.3 8.9H9.9V11.2ZM9.9 15.4H11.6C12.7 15.4 13.2 14.9 13.2 14.1C13.2 13.2 12.7 12.8 11.6 12.8H9.9V15.4Z" fill="#F9D66A"/>
  <path d="M15.9 7.2H18.1V13.3H15.9V7.2ZM15.9 14.7H18.1V17.1H15.9V14.7Z" fill="#F9D66A"/>
</svg>
